<?xml version="1.0" encoding="iso-8859-1"?>
<!-- Generator: Adobe Illustrator 19.0.0, SVG Export Plug-In . SVG Version: 6.00 Build 0)  -->
<svg version="1.1" id="Capa_1" xmlns="http://www.w3.org/2000/svg" xmlns:xlink="http://www.w3.org/1999/xlink" x="0px" y="0px"
	 viewBox="0 0 512 512" style="enable-background:new 0 0 512 512;" xml:space="preserve">
<g>
	<g>
		<path d="M362.667,68.188V10.667C362.667,4.771,357.896,0,352,0h-64c-4.104,0-7.854,2.354-9.625,6.063l-17.479,36.552
			c-0.406,0-0.823,0.01-1.219,0.01L256,42.667c-129.396,0-234.667,105.271-234.667,234.667c0,40.083,10.417,79.792,30.115,114.833
			c1.948,3.458,5.74,5.531,9.656,5.427c3.979-0.125,7.552-2.458,9.271-6.052l24.042-50.271c1.208-2.531,1.375-5.448,0.458-8.094
			c-6.333-18.271-9.542-37.063-9.542-55.844c0-84.802,61.906-155.656,144-168.708L43.708,496.729
			c-1.583,3.302-1.354,7.188,0.604,10.292c1.948,3.104,5.354,4.979,9.021,4.979h64c4.271,0,8.125-2.542,9.802-6.469l61.229-142.865
			H288v10.667c0,4.104,2.354,7.833,6.042,9.615c3.708,1.792,8.083,1.271,11.292-1.281L358.667,339c2.531-2.031,4-5.094,4-8.333
			c0-3.24-1.469-6.302-4-8.333l-53.333-42.667c-3.219-2.573-7.625-3.083-11.292-1.281c-3.688,1.781-6.042,5.51-6.042,9.615v10.667
			h-68.833L288,145.698v99.635c0,3.24,1.469,6.302,4,8.333l53.333,42.667c3.188,2.563,7.594,3.052,11.292,1.281
			c3.688-1.781,6.042-5.51,6.042-9.615V144.417c40.406,32.417,64,80.802,64,132.917c0,53.753-25.039,101.707-64,133.014v-37.014
			c0-4.104-2.354-7.833-6.042-9.615c-3.708-1.781-8.094-1.281-11.292,1.281L292,407.667c-3.531,2.833-4.896,7.594-3.396,11.865
			c1.5,4.271,5.531,7.135,10.063,7.135h39.773C313.98,440.225,285.892,448,256,448c-22.042,0-43.646-4.24-64.208-12.604
			c-5.375-2.146-11.531,0.344-13.823,5.688l-16.813,39.24c-1.125,2.625-1.156,5.594-0.073,8.229c1.083,2.646,3.177,4.75,5.823,5.833
			C195.333,506.073,225.312,512,256,512c129.396,0,234.667-105.271,234.667-234.667C490.667,189.708,440.646,108.354,362.667,68.188
			z M329.073,405.333l12.26-9.802v9.802H329.073z M256,490.667c-24.271,0-48.063-4.083-70.865-12.146l8.427-19.677
			c20.156,6.969,41.104,10.49,62.438,10.49c105.865,0,192-86.135,192-192c0-66.167-33.76-126.958-90.313-162.625
			c-3.26-2.073-7.427-2.208-10.844-0.323c-3.396,1.875-5.51,5.458-5.51,9.344v142.073l-32-25.594V96
			c0-5.031-3.51-9.375-8.427-10.427c-4.896-1.063-9.906,1.469-11.969,6.052l-96,213.333c-1.479,3.302-1.198,7.125,0.771,10.167
			s5.344,4.875,8.958,4.875h96c5.615,0,10.208-4.333,10.635-9.833l25.625,20.5l-25.625,20.5c-0.427-5.5-5.021-9.833-10.635-9.833
			H181.333c-4.271,0-8.125,2.542-9.802,6.469l-61.229,142.865H70.26l186.531-390.01c1.625-3.396,1.333-7.385-0.75-10.521
			c-2.083-3.135-5.76-5.01-9.417-4.74C144.219,90.635,64,174.938,64,277.333c0,19.729,3.125,39.427,9.313,58.625l-12.76,26.677
			c-11.75-26.854-17.885-55.969-17.885-85.302C42.667,159.698,138.365,64,256,64l4-0.042c2.417-0.042,4.896-0.094,7.104,0.021
			c4.344,0.375,8.26-2.177,10.115-6.052l17.5-36.594h46.615v53.458c0,4.104,2.354,7.844,6.063,9.625
			c74.073,35.479,121.938,111.208,121.938,192.917C469.333,394.969,373.635,490.667,256,490.667z"/>
	</g>
</g>
<g>
</g>
<g>
</g>
<g>
</g>
<g>
</g>
<g>
</g>
<g>
</g>
<g>
</g>
<g>
</g>
<g>
</g>
<g>
</g>
<g>
</g>
<g>
</g>
<g>
</g>
<g>
</g>
<g>
</g>
</svg>
